<?xml version="1.0" standalone="no"?>
<!DOCTYPE svg PUBLIC "-//W3C//DTD SVG 20010904//EN"
 "http://www.w3.org/TR/2001/REC-SVG-20010904/DTD/svg10.dtd">
<svg version="1.0" xmlns="http://www.w3.org/2000/svg"
 width="100.000000pt" height="100.000000pt" viewBox="0 0 100.000000 100.000000"
 preserveAspectRatio="xMidYMid meet">
<metadata>
Created by potrace 1.16, written by Peter Selinger 2001-2019
</metadata>
<g transform="translate(0.000000,100.000000) scale(0.022272,-0.022272)"
fill="rgb(96, 55, 13)" stroke="none">
<path d="M2220 3833 c-100 -17 -784 -245 -1014 -339 -59 -24 -127 -58 -151
-74 -109 -75 -200 -220 -200 -319 1 -74 24 -120 130 -255 47 -59 85 -112 85
-117 0 -4 -84 -79 -187 -166 -338 -284 -466 -398 -579 -516 -181 -188 -239
-292 -266 -477 -25 -168 -11 -182 374 -387 399 -212 841 -404 983 -427 l40 -7
57 118 c31 65 60 130 63 145 4 22 19 35 66 59 34 16 63 28 66 25 2 -2 -38 -61
-90 -131 -181 -244 -134 -211 127 89 194 223 431 490 447 503 16 13 139 -108
589 -572 171 -177 246 -239 356 -296 155 -80 179 -73 373 114 230 222 428 387
619 516 155 105 253 209 323 346 42 83 42 104 -5 155 -13 14 -42 53 -65 88
-85 127 -387 416 -686 658 -226 181 -278 216 -397 263 -37 14 -36 30 8 157 42
123 40 147 -16 198 -59 53 -257 148 -464 223 -65 23 -84 38 -258 202 -221 206
-262 235 -328 224z m118 -90 c251 -218 712 -665 712 -692 0 -21 -36 -38 -470
-218 -244 -101 -510 -217 -546 -238 -63 -37 -95 -129 -74 -217 18 -73 91 -148
144 -148 36 0 52 -14 344 -299 169 -165 408 -401 531 -524 l224 -225 -6 -57
c-3 -31 -8 -60 -12 -63 -3 -3 -142 129 -308 293 -484 480 -701 692 -685 668
17 -26 779 -848 925 -999 54 -55 113 -111 131 -125 32 -23 33 -26 30 -84 l-3
-60 -140 145 c-588 607 -901 928 -904 924 -2 -2 25 -36 60 -76 69 -79 655
-736 782 -876 43 -48 87 -100 99 -116 l21 -28 -21 11 c-104 55 -1952 1950
-2217 2271 -51 62 -83 120 -67 120 4 0 270 -262 591 -582 322 -321 578 -574
570 -563 -15 21 -335 373 -515 567 -675 725 -610 650 -588 683 9 14 20 25 24
25 4 0 171 -165 370 -367 200 -203 373 -375 384 -383 12 -8 -2 14 -29 49 -42
54 -577 681 -638 749 -42 46 11 23 90 -40 77 -62 526 -506 650 -645 l64 -71 2
-119 c2 -110 4 -122 32 -172 34 -61 81 -96 140 -105 58 -9 76 8 24 23 -52 16
-124 82 -140 129 -8 24 -10 71 -6 139 6 100 5 104 -20 135 -15 18 -130 139
-258 268 -338 344 -525 539 -525 548 0 12 33 26 210 89 117 42 923 319 938
322 1 1 37 -29 80 -66z m682 -458 c69 -36 136 -75 149 -89 l23 -24 -33 -56
c-19 -31 -36 -56 -39 -56 -3 0 -79 75 -170 166 l-165 165 54 -21 c30 -12 112
-50 181 -85z m83 -339 c10 -24 33 -62 52 -84 l34 -40 -47 -17 c-200 -75 -573
-239 -905 -399 -180 -87 -236 -106 -187 -64 29 24 178 97 406 197 145 63 224
100 457 211 145 69 45 37 -245 -78 -368 -146 -365 -146 -353 -134 6 6 60 33
120 60 204 93 508 242 503 247 -4 4 -718 -279 -880 -349 -70 -30 -89 -15 -40
33 25 25 126 69 772 338 85 36 182 77 215 93 33 16 65 29 70 29 6 1 18 -19 28
-43z m262 -185 c59 -26 214 -154 435 -357 251 -230 450 -428 450 -447 0 -21
-66 -69 -390 -284 -418 -279 -606 -393 -644 -393 -9 0 -197 175 -418 389 -497
479 -540 524 -536 552 2 17 32 38 123 86 199 107 919 473 930 473 6 0 28 -9
50 -19z m-2215 -200 c41 -38 72 -72 69 -75 -3 -3 -27 6 -55 20 l-49 25 30 -25
c17 -14 84 -65 150 -114 66 -50 131 -102 145 -117 l25 -28 -35 18 c-19 10 -99
56 -178 102 -79 46 -146 82 -148 80 -5 -4 145 -109 381 -267 209 -140 244
-164 241 -167 -1 -2 -99 51 -217 118 -118 67 -232 130 -254 140 l-40 20 30
-26 c17 -14 158 -112 315 -217 157 -105 293 -198 303 -208 18 -17 14 -23 -116
-161 -74 -79 -176 -184 -226 -234 l-91 -90 0 -55 c0 -58 20 -111 64 -177 26
-38 34 -73 16 -73 -20 0 -54 49 -96 136 l-42 90 -114 62 c-135 73 -614 307
-853 417 -93 43 -176 83 -183 90 -11 10 5 29 80 102 161 156 753 683 767 683
3 0 40 -31 81 -69z m3215 -713 c4 -18 1 -37 -8 -52 -9 -12 -97 -85 -196 -161
-100 -76 -181 -140 -181 -142 0 -7 36 16 238 151 166 112 204 133 209 120 7
-19 -3 -29 -150 -140 -122 -92 -210 -145 -318 -190 -93 -39 -125 -61 -214
-144 -68 -64 -172 -149 -323 -264 -85 -65 -105 -76 -117 -66 -35 29 -21 44
213 210 95 67 171 124 168 127 -5 6 -61 -23 -222 -113 -132 -74 -207 -108
-218 -97 -3 4 -6 28 -6 54 l0 49 138 92 c398 266 906 620 918 639 9 16 62 -39
69 -73z m-3804 -234 c211 -102 479 -235 596 -295 206 -107 213 -112 223 -147
5 -21 26 -64 46 -97 50 -83 51 -100 15 -180 -17 -37 -31 -74 -31 -81 0 -8 -3
-14 -6 -14 -13 0 -381 153 -482 201 -166 78 -707 372 -780 424 -29 21 -29 38
1 29 12 -4 119 -52 237 -107 768 -356 950 -439 950 -432 0 10 -436 238 -1007
527 -123 62 -221 118 -219 123 7 21 -19 32 556 -234 456 -212 496 -230 526
-241 45 -17 16 4 -66 47 -251 134 -443 235 -650 343 -276 144 -342 181 -337
187 9 8 440 -173 710 -298 236 -110 212 -89 -74 63 -201 107 -437 226 -551
277 -36 16 -68 33 -71 38 -5 8 18 53 27 53 2 0 176 -84 387 -186z m1408 129
c-13 -15 -102 -110 -198 -210 -195 -205 -229 -245 -166 -199 103 76 261 212
371 318 l70 69 24 -26 24 -25 -31 -33 c-17 -17 -49 -60 -72 -94 -45 -68 -79
-97 -158 -137 -61 -30 -86 -60 -109 -129 -24 -74 -48 -118 -81 -148 -45 -43
-69 -45 -101 -11 -45 48 -76 114 -68 145 10 40 84 122 300 336 147 145 200
191 208 183 9 -9 6 -19 -13 -39z m2291 -229 c-52 -52 -237 -204 -390 -319
-161 -121 -245 -190 -363 -299 -94 -86 -107 -96 -101 -70 11 47 22 61 67 93
54 38 138 126 212 221 123 159 187 210 326 261 98 35 200 89 247 130 50 44 51
34 2 -17z"/>
<path d="M1351 3241 c39 -49 223 -248 384 -417 33 -34 89 -88 124 -119 76 -68
81 -68 241 -8 130 49 532 225 527 230 -3 2 -60 -16 -128 -41 -68 -24 -212 -75
-319 -114 -107 -38 -207 -72 -222 -76 -24 -5 -49 16 -270 231 -133 130 -274
266 -312 302 l-70 66 45 -54z"/>
<path d="M2607 1965 c169 -183 586 -591 611 -597 34 -9 102 29 427 245 277
184 372 251 285 200 -19 -11 -84 -49 -145 -83 -60 -35 -205 -121 -321 -191
-116 -71 -216 -129 -221 -131 -6 -2 -111 92 -234 208 -192 180 -319 296 -479
438 -19 17 16 -23 77 -89z"/>
<path d="M480 1795 c0 -12 602 -301 732 -351 49 -19 105 -34 129 -34 37 0 47
6 98 58 74 77 204 222 199 222 -3 0 -63 -52 -134 -115 -71 -64 -140 -118 -152
-122 -34 -8 -85 9 -294 103 -103 46 -265 115 -360 155 -213 88 -218 90 -218
84z"/>
</g>
</svg>
